<svg width="35" height="36" viewBox="0 0 35 36" fill="none" xmlns="http://www.w3.org/2000/svg">
<path d="M21.0419 1.33432H15.1564C12.0626 1.33432 9.55454 3.84237 9.55454 6.9362C9.55454 10.03 12.0626 12.5381 15.1564 12.5381H21.0419V1.33432ZM21.0419 1.33432H12.2491C7.54965 1.33432 3.73996 5.14401 3.73996 9.8435V26.4364H9.69638C15.9624 26.4364 21.042 21.3568 21.042 15.0908L21.0419 1.33432ZM1.32901 26.3655H33.8057M27.3529 22.04L23.0274 26.3655M31.5366 29.131L28.842 26.4364M20.9037 1.32861H26.7762C29.9092 1.32861 32.449 3.86841 32.449 7.0014V9.79897H20.9037V1.32861ZM3.73996 26.2946H9.55456V28.9892C9.55456 32.1222 7.01477 34.6619 3.88177 34.6619H3.73996V26.2946Z" stroke="#323232" stroke-width="2" stroke-linecap="round"/>
<path d="M17.1457 6.32878C17.1457 6.77981 16.78 7.14544 16.329 7.14544C15.878 7.14544 15.5123 6.77981 15.5123 6.32878C15.5123 5.87774 15.878 5.51211 16.329 5.51211C16.78 5.51211 17.1457 5.87774 17.1457 6.32878Z" stroke="#323232" stroke-width="1.7"/>
</svg>
