<svg width="36" height="28" viewBox="0 0 36 28" fill="none" xmlns="http://www.w3.org/2000/svg">
<path d="M14.9266 1.41312V6.97814M20.6052 1.41307V6.97809M6.9766 15.0985H1.07086M34.4042 15.0985H28.4985M1.75232 23.4459L6.18162 20.6066M33.7796 23.4459L29.3503 20.6066M17.7659 26.3421V21.1291M20.7188 17.6538V17.8242C20.7188 19.4864 19.3713 20.8338 17.7091 20.8338C16.0469 20.8338 14.6995 19.4864 14.6995 17.8242V17.6538M1.29798 1.35629L1.53029 5.70381C1.63326 7.63088 2.70787 9.37375 4.38342 10.3312L4.47799 10.3852C3.51263 15.7042 5.03449 26.3421 17.7091 26.3421C30.3837 26.3421 31.9056 15.7042 30.9402 10.3852L31.0348 10.3312C32.7103 9.37375 33.785 7.63088 33.8879 5.70381L34.1202 1.35629C32.2274 1.18593 27.9306 1.33357 25.8863 3.28701C24.902 2.56772 21.8886 1.12915 17.7091 1.12915C13.5297 1.12915 10.5162 2.56772 9.53193 3.28701C7.48764 1.33357 3.19084 1.18593 1.29798 1.35629Z" stroke="#323232" stroke-width="2" stroke-linecap="round" stroke-linejoin="round"/>
<path d="M13.5542 12.7958C13.5542 13.2468 13.1886 13.6125 12.7375 13.6125C12.2865 13.6125 11.9209 13.2468 11.9209 12.7958C11.9209 12.3448 12.2865 11.9792 12.7375 11.9792C13.1886 11.9792 13.5542 12.3448 13.5542 12.7958ZM23.5542 12.7958C23.5542 13.2468 23.1886 13.6125 22.7375 13.6125C22.2865 13.6125 21.9209 13.2468 21.9209 12.7958C21.9209 12.3448 22.2865 11.9792 22.7375 11.9792C23.1886 11.9792 23.5542 12.3448 23.5542 12.7958Z" stroke="#323232" stroke-width="1.7"/>
</svg>
