<svg width="38" height="33" viewBox="0 0 38 33" fill="none" xmlns="http://www.w3.org/2000/svg">
<path d="M10.6039 5.5663H6.55684C3.92728 5.5663 1.79559 7.69798 1.79559 10.3275V20.2071C1.79559 21.5219 2.86143 22.5877 4.17622 22.5877H5.18798C6.50276 22.5877 7.6154 21.4612 7.6154 20.1464V19.1942M27.3873 5.56627H31.4344C34.0639 5.56627 36.1956 7.69796 36.1956 10.3275V20.2071C36.1956 21.5219 35.1298 22.5877 33.815 22.5877H32.8032C31.4884 22.5877 30.3727 21.4989 30.3727 20.1841V19.2319M18.9361 25.7421V31.7532M17.1506 31.7531H20.8406C26.0997 31.7531 30.3631 27.4898 30.3631 22.2307V12.7082C30.3631 6.79164 25.5668 1.99536 19.6503 1.99536H18.3409C12.4244 1.99536 7.62811 6.79164 7.62811 12.7082V22.2307C7.62811 27.4898 11.8915 31.7531 17.1506 31.7531ZM22.0308 22.5878C22.0308 24.297 20.6452 25.6826 18.936 25.6826C17.2268 25.6826 15.8412 24.297 15.8412 22.5878C15.8412 20.8785 17.2268 19.4929 18.936 19.4929C20.6452 19.4929 22.0308 20.8785 22.0308 22.5878Z" stroke="#323232" stroke-width="2"/>
<path d="M14.7789 14.3871C14.7789 14.8382 14.4133 15.2038 13.9623 15.2038C13.5112 15.2038 13.1456 14.8382 13.1456 14.3871C13.1456 13.9361 13.5112 13.5705 13.9623 13.5705C14.4133 13.5705 14.7789 13.9361 14.7789 14.3871ZM24.7789 14.3871C24.7789 14.8382 24.4133 15.2038 23.9623 15.2038C23.5112 15.2038 23.1456 14.8382 23.1456 14.3871C23.1456 13.9361 23.5112 13.5705 23.9623 13.5705C24.4133 13.5705 24.7789 13.9361 24.7789 14.3871Z" stroke="#323232" stroke-width="1.7"/>
</svg>
